<svg width="48" height="36" viewBox="0 0 48 36" fill="none" xmlns="http://www.w3.org/2000/svg">
<path d="M0.762703 10.4534C1.18394 10.0121 1.8669 10.0121 2.28813 10.4534L24 33.1964L45.7119 10.4534C46.1332 10.0121 46.8161 10.0121 47.2374 10.4534C47.6586 10.8946 47.6586 11.61 47.2374 12.0512L24.9586 35.388C24.9127 35.4709 24.8559 35.5489 24.7881 35.6198C24.5711 35.8472 24.2845 35.9574 24 35.9504C23.7156 35.9574 23.429 35.8472 23.2119 35.6198C23.1442 35.5489 23.0874 35.4709 23.0414 35.388L0.762703 12.0512C0.341469 11.61 0.341469 10.8946 0.762703 10.4534Z" fill="#FFDC0A"/>
<path d="M6.5719 0.599271C6.88783 0.268342 7.40005 0.268342 7.71597 0.599271L23.9999 17.6566L40.2838 0.599271C40.5997 0.268342 41.112 0.268342 41.4279 0.599271C41.7438 0.9302 41.7438 1.46674 41.4279 1.79767L24.7186 19.3005C24.6842 19.3625 24.6416 19.4209 24.5909 19.474C24.4281 19.6446 24.2132 19.7272 23.9999 19.722C23.7866 19.7272 23.5717 19.6446 23.4089 19.474C23.3582 19.4209 23.3156 19.3625 23.2812 19.3005L6.5719 1.79767C6.25598 1.46674 6.25598 0.9302 6.5719 0.599271Z" fill="#FFDC0A"/>
</svg>
