<svg width="596" height="440" viewBox="0 0 596 440" fill="none" xmlns="http://www.w3.org/2000/svg">
<g filter="url(#filter0_d)">
<rect x="294.256" y="124.943" width="250.671" height="92.3523" fill="white"/>
<path fill-rule="evenodd" clip-rule="evenodd" d="M232.11 15L317.846 64.5L331.996 72.6694H566.84V353.331H331.996L317.846 361.5L232.11 411L146.373 361.5L60.6367 312V215.035H91.6412V226.877H101.215V206.343H94.5384V126.856H84.5868V206.092H62.9198V126.856H60.6367V114L146.373 64.5L232.11 15ZM182.227 165.907V135.8H208.68V126.856H172.401V215.035H208.68V206.092H182.227V174.725H203.767V165.907H182.227ZM311.989 175.355V215.035H321.814V126.856H311.989V166.537H290.322V126.856H280.496V215.035H290.322V175.355H311.989ZM417.942 215.035V135.8H434.193V126.856H391.866V135.8H408.117V215.035H417.942ZM504.245 126.856V215.035H514.07V180.268H522.762C536.745 180.268 543.295 172.961 543.295 158.978V148.397C543.295 135.044 537.375 126.856 523.518 126.856H504.245ZM514.07 171.449V135.8H523.518C530.698 135.8 533.596 139.831 533.596 147.893V159.608C533.596 168.048 530.069 171.449 522.762 171.449H514.07Z" fill="#1F1D1A"/>
<path fill-rule="evenodd" clip-rule="evenodd" d="M186.473 15L272.209 64.5L301.291 82.2415L301.233 344.301L272.209 361.5L186.473 411L100.737 361.5L15 312V213V114L100.737 64.5L186.473 15Z" fill="#FFDC0A"/>
<path fill-rule="evenodd" clip-rule="evenodd" d="M429.28 276.591H505.305C509.911 276.591 513.611 279.677 513.611 283.351V296.879C513.611 300.846 509.911 303.934 505.305 303.934H429.28C424.674 303.934 421 300.846 421 296.879V283.351C421 279.677 424.674 276.591 429.28 276.591ZM421 304.523H513.611V307.02H421V304.523ZM412.988 321.77H417.914C418.843 321.77 419.751 322.358 419.751 323.29C419.751 323.927 418.843 324.515 417.914 324.515H412.988C412.08 324.515 411.469 323.927 411.469 323.29C411.469 322.358 412.08 321.77 412.988 321.77ZM515.154 321.427H519.761C520.989 321.427 521.625 322.358 521.625 322.995C521.625 323.927 520.989 324.515 519.761 324.515H515.154C514.224 324.515 513.316 323.927 513.316 322.995C513.316 322.358 514.224 321.427 515.154 321.427ZM411.763 281.49H418.231V307.608H516.088V281.49H522.53C526.228 281.49 529.291 283.988 529.291 286.733V320.2H516.088C516.088 320.2 515.768 320.2 515.451 320.2H405.001V286.733C405.001 283.988 408.063 281.49 411.763 281.49Z" fill="#FFED00"/>
<path d="M351.837 312.453V247.023L440.427 231.374L459.995 248.583" stroke="#FFED00" stroke-width="0.439773" stroke-miterlimit="22.9256"/>
<path fill-rule="evenodd" clip-rule="evenodd" d="M343.885 313.645H358.464C361.216 313.645 363.901 315.386 363.901 318.144C363.901 320.029 361.216 321.77 358.464 321.77H343.885C341.197 321.77 339.386 320.029 339.386 318.144C339.386 315.386 341.197 313.645 343.885 313.645Z" fill="#FFED00"/>
<path fill-rule="evenodd" clip-rule="evenodd" d="M468.456 255.804C467.033 257.454 464.844 258.201 462.691 257.889L469.669 249.796C470.399 251.758 469.974 254.043 468.456 255.804ZM443.576 234.142C443.142 234.646 443.174 235.34 443.697 235.792L453.663 244.384C453.584 244.964 453.757 245.781 454.26 246.214L457.421 248.94C457.541 249.044 457.663 249.148 457.663 249.148C455.919 252.716 456.579 257.04 459.635 259.886C459.776 260.007 459.776 260.007 459.776 260.007L471.328 246.61C468.167 243.884 463.661 243.737 460.388 245.987C460.388 245.987 460.267 245.883 460.146 245.779L456.985 243.054C456.482 242.62 455.762 242.437 455.077 242.743L445.112 234.151C444.589 233.7 443.906 233.76 443.576 234.142Z" fill="#FFED00"/>
<path d="M60.1119 244.439V266.8H61.7092V243.011H51.1401V266.8H52.7035V244.439H60.1119ZM64.9714 243.011V266.8H66.5348V257.013H69.4914C73.2636 257.013 74.9967 255.144 74.9967 251.371V248.789C74.9967 245.322 73.5694 243.011 69.8991 243.011H64.9714ZM66.5348 255.586V244.439H69.8991C72.5498 244.439 73.4336 246.104 73.4336 248.687V251.473C73.4336 254.362 72.244 255.586 69.4914 255.586H66.5348ZM77.7831 260.989C77.7831 264.455 79.3804 267.004 82.9828 267.004C86.6531 267.004 88.2504 264.455 88.2504 260.989V248.822C88.2504 245.356 86.6531 242.807 82.9828 242.807C79.3804 242.807 77.7831 245.356 77.7831 248.822V260.989ZM79.3465 248.721C79.3465 246.138 80.3659 244.235 82.9828 244.235C85.6335 244.235 86.687 246.138 86.687 248.721V261.091C86.687 263.674 85.6335 265.577 82.9828 265.577C80.3659 265.577 79.3465 263.674 79.3465 261.091V248.721ZM100.213 245.764V243.011H98.6833V245.764H96.7461C92.8381 245.764 91.2747 247.973 91.2747 251.745V258.236C91.2747 262.008 92.8381 264.217 96.7461 264.217H98.6833V266.8H100.213V264.217H102.15C106.024 264.217 107.621 262.008 107.621 258.236V251.745C107.621 247.973 106.024 245.764 102.15 245.764H100.213ZM98.6833 247.157V262.824H96.7461C93.8916 262.824 92.804 261.193 92.804 258.338V251.643C92.804 248.789 93.8916 247.157 96.7461 247.157H98.6833ZM100.213 262.824V247.157H102.15C105.004 247.157 106.092 248.789 106.092 251.643V258.338C106.092 261.193 104.97 262.824 102.15 262.824H100.213ZM112.379 254.022V244.439H120.195V243.011H110.815V266.8H120.195V265.373H112.379V255.449H118.87V254.022H112.379ZM128.317 242.807C124.681 242.807 123.185 245.39 123.185 248.822V260.989C123.185 264.421 124.681 267.004 128.317 267.004C131.953 267.004 133.449 264.421 133.449 260.989V258.27H131.953V261.091C131.953 263.64 130.968 265.543 128.351 265.543C125.734 265.543 124.749 263.64 124.749 261.091V248.721C124.749 246.172 125.734 244.235 128.351 244.235C130.968 244.235 131.953 246.172 131.953 248.721V250.794H133.449V248.822C133.449 245.39 131.953 242.807 128.317 242.807ZM141.571 242.807C137.934 242.807 136.439 245.39 136.439 248.822V260.989C136.439 264.421 137.934 267.004 141.571 267.004C145.207 267.004 146.702 264.421 146.702 260.989V258.27H145.207V261.091C145.207 263.64 144.221 265.543 141.605 265.543C138.988 265.543 138.002 263.64 138.002 261.091V248.721C138.002 246.172 138.988 244.235 141.605 244.235C144.221 244.235 145.207 246.172 145.207 248.721V250.794H146.702V248.822C146.702 245.39 145.207 242.807 141.571 242.807ZM158.97 245.764V266.8H160.398V243.011H158.529L153.975 255.517L151.222 263.368V243.011H149.795V266.8H151.494L155.368 255.755L158.97 245.764ZM163.524 260.989C163.524 264.455 165.121 267.004 168.724 267.004C172.394 267.004 173.991 264.455 173.991 260.989V248.822C173.991 245.356 172.394 242.807 168.724 242.807C165.121 242.807 163.524 245.356 163.524 248.822V260.989ZM165.087 248.721C165.087 246.138 166.107 244.235 168.724 244.235C171.374 244.235 172.428 246.138 172.428 248.721V261.091C172.428 263.674 171.374 265.577 168.724 265.577C166.107 265.577 165.087 263.674 165.087 261.091V248.721ZM186.089 255.619V266.8H187.687V243.011H186.089V254.192H178.681V243.011H177.118V266.8H178.681V255.619H186.089ZM200.634 261.533L201.824 266.8H203.387L198.085 242.977H195.809L190.609 266.8H192.036L193.226 261.533H200.634ZM196.896 244.779L200.396 260.173H193.464L196.896 244.779ZM216.845 244.439V266.8H218.442V243.011H209.572L208.858 261.023C208.79 263.402 208.62 265.407 205.936 265.407V266.834H206.242C209.742 266.766 210.286 264.217 210.422 260.989L211.033 244.439H216.845ZM223.301 252.799V243.011H221.738V266.8H226.632C230.336 266.8 231.763 264.489 231.763 261.023V258.44C231.763 254.668 230.03 252.799 226.224 252.799H223.301ZM223.301 265.373V254.226H226.224C228.977 254.226 230.2 255.449 230.2 258.338V261.125C230.2 263.708 229.283 265.373 226.632 265.373H223.301ZM243.828 255.619V266.8H245.425V243.011H243.828V254.192H236.419V243.011H234.856V266.8H236.419V255.619H243.828ZM248.585 260.989C248.585 264.455 250.182 267.004 253.785 267.004C257.455 267.004 259.052 264.455 259.052 260.989V248.822C259.052 245.356 257.455 242.807 253.785 242.807C250.182 242.807 248.585 245.356 248.585 248.822V260.989ZM250.148 248.721C250.148 246.138 251.168 244.235 253.785 244.235C256.435 244.235 257.489 246.138 257.489 248.721V261.091C257.489 263.674 256.435 265.577 253.785 265.577C251.168 265.577 250.148 263.674 250.148 261.091V248.721ZM271.32 244.439V243.011H262.179V266.8H263.742V244.439H271.32ZM274.379 260.989C274.379 264.455 275.976 267.004 279.578 267.004C283.249 267.004 284.846 264.455 284.846 260.989V248.822C284.846 245.356 283.249 242.807 279.578 242.807C275.976 242.807 274.379 245.356 274.379 248.822V260.989ZM275.942 248.721C275.942 246.138 276.961 244.235 279.578 244.235C282.229 244.235 283.282 246.138 283.282 248.721V261.091C283.282 263.674 282.229 265.577 279.578 265.577C276.961 265.577 275.942 263.674 275.942 261.091V248.721ZM188.468 288.516V312.305H190.031V302.518H192.988C196.76 302.518 198.493 300.649 198.493 296.877V294.294C198.493 290.827 197.066 288.516 193.396 288.516H188.468ZM190.031 301.091V289.944H193.396C196.046 289.944 196.93 291.609 196.93 294.192V296.979C196.93 299.867 195.741 301.091 192.988 301.091H190.031ZM202.945 299.527V289.944H210.762V288.516H201.382V312.305H210.762V310.878H202.945V300.955H209.436V299.527H202.945ZM226.802 291.167V312.305H228.297V288.516H226.054L221.092 309.553L216.097 288.516H213.854V312.305H215.247V291.235L220.277 312.271H221.84L226.802 291.167ZM231.457 306.494C231.457 309.96 233.054 312.509 236.657 312.509C240.327 312.509 241.924 309.96 241.924 306.494V294.328C241.924 290.861 240.327 288.313 236.657 288.313C233.054 288.313 231.457 290.861 231.457 294.328V306.494ZM233.021 294.226C233.021 291.643 234.04 289.74 236.657 289.74C239.308 289.74 240.361 291.643 240.361 294.226V306.596C240.361 309.179 239.308 311.082 236.657 311.082C234.04 311.082 233.021 309.179 233.021 306.596V294.226ZM254.023 301.125V312.305H255.62V288.516H254.023V299.697H246.614V288.516H245.051V312.305H246.614V301.125H254.023ZM264.897 312.305V289.944H269.757V288.516H258.474V289.944H263.334V312.305H264.897ZM282.297 307.038L283.487 312.305H285.05L279.748 288.482H277.471L272.272 312.305H273.699L274.889 307.038H282.297ZM278.559 290.284L282.059 305.678H275.126L278.559 290.284Z" fill="#1F1D1A"/>
<path fill-rule="evenodd" clip-rule="evenodd" d="M101.216 226.877V206.343H94.5399V126.856H84.5883V206.091H62.9213V126.856H53.2217V215.035H91.6427V226.877H101.216ZM301.273 166.537L301.271 175.355H290.323V215.035H280.497V126.856H290.323V166.537H301.273ZM182.228 165.907V135.8H208.682V126.856H172.402V215.035H208.682V206.091H182.228V174.725H203.769V165.907H182.228Z" fill="#1F1D1A"/>
</g>
<defs>
<filter id="filter0_d" x="0.86837" y="0.86837" width="594.235" height="438.395" filterUnits="userSpaceOnUse" color-interpolation-filters="sRGB">
<feFlood flood-opacity="0" result="BackgroundImageFix"/>
<feColorMatrix in="SourceAlpha" type="matrix" values="0 0 0 0 0 0 0 0 0 0 0 0 0 0 0 0 0 0 127 0"/>
<feOffset dx="7.06582" dy="7.06582"/>
<feGaussianBlur stdDeviation="10.5987"/>
<feColorMatrix type="matrix" values="0 0 0 0 0 0 0 0 0 0 0 0 0 0 0 0 0 0 0.3 0"/>
<feBlend mode="normal" in2="BackgroundImageFix" result="effect1_dropShadow"/>
<feBlend mode="normal" in="SourceGraphic" in2="effect1_dropShadow" result="shape"/>
</filter>
</defs>
</svg>
