<svg width="93" height="69" viewBox="0 0 93 69" fill="none" xmlns="http://www.w3.org/2000/svg">
<g filter="url(#filter0_d)">
<rect x="46.0166" y="19.9357" width="38.6134" height="14.226" fill="white"/>
<path fill-rule="evenodd" clip-rule="evenodd" d="M36.444 3L49.6509 10.625L51.8305 11.8834H88.006V55.1166H51.8305L49.6509 56.375L36.444 64L23.2371 56.375L10.0303 48.75V33.8135H14.8062V35.6376H16.2809V32.4746H15.2525V20.2304H13.7195V32.4358H10.382V20.2304H10.0303V18.25L23.2371 10.625L36.444 3ZM28.76 26.2457V21.6081H32.835V20.2304H27.2465V33.8135H32.835V32.4358H28.76V27.6041H32.0782V26.2457H28.76ZM48.7486 27.7011V33.8135H50.2622V20.2304H48.7486V26.3428H45.411V20.2304H43.8975V33.8135H45.411V27.7011H48.7486ZM65.0698 33.8135V21.6081H67.573V20.2304H61.053V21.6081H63.5562V33.8135H65.0698ZM78.3638 20.2304V33.8135H79.8774V28.4579H81.2163C83.3702 28.4579 84.3792 27.3324 84.3792 25.1785V23.5485C84.3792 21.4916 83.4672 20.2304 81.3327 20.2304H78.3638ZM79.8774 27.0995V21.6081H81.3327C82.4388 21.6081 82.8851 22.229 82.8851 23.4709V25.2755C82.8851 26.5756 82.3417 27.0995 81.2163 27.0995H79.8774Z" fill="#1F1D1A"/>
<path fill-rule="evenodd" clip-rule="evenodd" d="M29.4138 3L42.6206 10.625L47.1003 13.3579L47.0914 53.7257L42.6206 56.375L29.4138 64L16.2069 56.375L3 48.75V33.5V18.25L16.2069 10.625L29.4138 3Z" fill="#FFDC0A"/>
<path fill-rule="evenodd" clip-rule="evenodd" d="M66.8161 43.2956H78.527C79.2366 43.2956 79.8066 43.771 79.8066 44.337V46.4207C79.8066 47.0319 79.2366 47.5076 78.527 47.5076H66.8161C66.1066 47.5076 65.5406 47.0319 65.5406 46.4207V44.337C65.5406 43.771 66.1066 43.2956 66.8161 43.2956ZM65.5406 47.5982H79.8066V47.9829H65.5406V47.5982ZM64.3066 50.255H65.0653C65.2085 50.255 65.3482 50.3456 65.3482 50.4891C65.3482 50.5872 65.2085 50.6778 65.0653 50.6778H64.3066C64.1667 50.6778 64.0725 50.5872 64.0725 50.4891C64.0725 50.3456 64.1667 50.255 64.3066 50.255ZM80.0441 50.2021H80.7539C80.943 50.2021 81.041 50.3456 81.041 50.4437C81.041 50.5872 80.943 50.6778 80.7539 50.6778H80.0441C79.9009 50.6778 79.7611 50.5872 79.7611 50.4437C79.7611 50.3456 79.9009 50.2021 80.0441 50.2021ZM64.1179 44.0502H65.1141V48.0735H80.188V44.0502H81.1804C81.7501 44.0502 82.2218 44.4351 82.2218 44.8578V50.0131H80.188C80.188 50.0131 80.1388 50.0131 80.0899 50.0131H63.0762V44.8578C63.0762 44.4351 63.5479 44.0502 64.1179 44.0502Z" fill="#FFED00"/>
<path d="M54.8867 48.8199V38.7409L68.5331 36.3303L71.5474 38.9813" stroke="#FFED00" stroke-width="0.0677428" stroke-miterlimit="22.9256"/>
<path fill-rule="evenodd" clip-rule="evenodd" d="M53.6617 49.0034H55.9075C56.3314 49.0034 56.7451 49.2716 56.7451 49.6964C56.7451 49.9868 56.3314 50.255 55.9075 50.255H53.6617C53.2477 50.255 52.9688 49.9868 52.9688 49.6964C52.9688 49.2716 53.2477 49.0034 53.6617 49.0034Z" fill="#FFED00"/>
<path fill-rule="evenodd" clip-rule="evenodd" d="M72.8509 40.0935C72.6317 40.3477 72.2946 40.4627 71.963 40.4147L73.0379 39.1681C73.1503 39.4703 73.0848 39.8222 72.8509 40.0935ZM69.0185 36.7568C68.9516 36.8343 68.9565 36.9413 69.0372 37.0108L70.5722 38.3344C70.5601 38.4237 70.5867 38.5496 70.6642 38.6164L71.1512 39.0362C71.1697 39.0522 71.1884 39.0683 71.1884 39.0683C70.9199 39.6179 71.0214 40.2839 71.4922 40.7223C71.5139 40.7411 71.5139 40.7411 71.5139 40.7411L73.2933 38.6773C72.8064 38.2574 72.1124 38.2348 71.6082 38.5814C71.6082 38.5814 71.5895 38.5653 71.571 38.5493L71.084 38.1295C71.0065 38.0626 70.8956 38.0345 70.7901 38.0816L69.2551 36.7581C69.1745 36.6886 69.0693 36.6978 69.0185 36.7568Z" fill="#FFED00"/>
<path d="M9.9494 38.3428V41.7874H10.1954V38.123H8.56738V41.7874H8.80821V38.3428H9.9494ZM10.698 38.123V41.7874H10.9388V40.2797H11.3942C11.9753 40.2797 12.2423 39.9918 12.2423 39.4107V39.0129C12.2423 38.4789 12.0224 38.123 11.457 38.123H10.698ZM10.9388 40.0599V38.3428H11.457C11.8653 38.3428 12.0015 38.5993 12.0015 38.9972V39.4265C12.0015 39.8714 11.8182 40.0599 11.3942 40.0599H10.9388ZM12.6715 40.8922C12.6715 41.4262 12.9175 41.8188 13.4724 41.8188C14.0378 41.8188 14.2839 41.4262 14.2839 40.8922V39.0181C14.2839 38.4842 14.0378 38.0916 13.4724 38.0916C12.9175 38.0916 12.6715 38.4842 12.6715 39.0181V40.8922ZM12.9123 39.0024C12.9123 38.6046 13.0693 38.3114 13.4724 38.3114C13.8808 38.3114 14.043 38.6046 14.043 39.0024V40.9079C14.043 41.3058 13.8808 41.5989 13.4724 41.5989C13.0693 41.5989 12.9123 41.3058 12.9123 40.9079V39.0024ZM16.1265 38.547V38.123H15.891V38.547H15.5925C14.9906 38.547 14.7497 38.8873 14.7497 39.4683V40.4682C14.7497 41.0493 14.9906 41.3895 15.5925 41.3895H15.891V41.7874H16.1265V41.3895H16.4249C17.0217 41.3895 17.2677 41.0493 17.2677 40.4682V39.4683C17.2677 38.8873 17.0217 38.547 16.4249 38.547H16.1265ZM15.891 38.7616V41.1749H15.5925C15.1528 41.1749 14.9853 40.9236 14.9853 40.4839V39.4526C14.9853 39.0129 15.1528 38.7616 15.5925 38.7616H15.891ZM16.1265 41.1749V38.7616H16.4249C16.8647 38.7616 17.0322 39.0129 17.0322 39.4526V40.4839C17.0322 40.9236 16.8594 41.1749 16.4249 41.1749H16.1265ZM18.0006 39.8191V38.3428H19.2046V38.123H17.7598V41.7874H19.2046V41.5675H18.0006V40.0389H19.0005V39.8191H18.0006ZM20.4557 38.0916C19.8956 38.0916 19.6652 38.4894 19.6652 39.0181V40.8922C19.6652 41.4209 19.8956 41.8188 20.4557 41.8188C21.0159 41.8188 21.2462 41.4209 21.2462 40.8922V40.4734H21.0159V40.9079C21.0159 41.3006 20.8641 41.5937 20.461 41.5937C20.0579 41.5937 19.9061 41.3006 19.9061 40.9079V39.0024C19.9061 38.6098 20.0579 38.3114 20.461 38.3114C20.8641 38.3114 21.0159 38.6098 21.0159 39.0024V39.3218H21.2462V39.0181C21.2462 38.4894 21.0159 38.0916 20.4557 38.0916ZM22.4973 38.0916C21.9372 38.0916 21.7068 38.4894 21.7068 39.0181V40.8922C21.7068 41.4209 21.9372 41.8188 22.4973 41.8188C23.0575 41.8188 23.2878 41.4209 23.2878 40.8922V40.4734H23.0575V40.9079C23.0575 41.3006 22.9057 41.5937 22.5026 41.5937C22.0995 41.5937 21.9477 41.3006 21.9477 40.9079V39.0024C21.9477 38.6098 22.0995 38.3114 22.5026 38.3114C22.9057 38.3114 23.0575 38.6098 23.0575 39.0024V39.3218H23.2878V39.0181C23.2878 38.4894 23.0575 38.0916 22.4973 38.0916ZM25.1776 38.547V41.7874H25.3975V38.123H25.1095L24.4081 40.0494L23.984 41.2587V38.123H23.7642V41.7874H24.0259L24.6227 40.086L25.1776 38.547ZM25.879 40.8922C25.879 41.4262 26.1251 41.8188 26.68 41.8188C27.2454 41.8188 27.4914 41.4262 27.4914 40.8922V39.0181C27.4914 38.4842 27.2454 38.0916 26.68 38.0916C26.1251 38.0916 25.879 38.4842 25.879 39.0181V40.8922ZM26.1199 39.0024C26.1199 38.6046 26.2769 38.3114 26.68 38.3114C27.0883 38.3114 27.2506 38.6046 27.2506 39.0024V40.9079C27.2506 41.3058 27.0883 41.5989 26.68 41.5989C26.2769 41.5989 26.1199 41.3058 26.1199 40.9079V39.0024ZM29.355 40.0651V41.7874H29.6011V38.123H29.355V39.8452H28.2138V38.123H27.973V41.7874H28.2138V40.0651H29.355ZM31.5955 40.976L31.7787 41.7874H32.0196L31.2029 38.1177H30.8522L30.0512 41.7874H30.2711L30.4543 40.976H31.5955ZM31.0197 38.3952L31.5589 40.7666H30.491L31.0197 38.3952ZM34.0926 38.3428V41.7874H34.3386V38.123H32.9723L32.8624 40.8975C32.8519 41.2639 32.8257 41.5728 32.4121 41.5728V41.7926H32.4593C32.9985 41.7821 33.0822 41.3895 33.1032 40.8922L33.1974 38.3428H34.0926ZM35.0872 39.6306V38.123H34.8463V41.7874H35.6002C36.1708 41.7874 36.3906 41.4314 36.3906 40.8975V40.4996C36.3906 39.9185 36.1237 39.6306 35.5374 39.6306H35.0872ZM35.0872 41.5675V39.8505H35.5374C35.9614 39.8505 36.1499 40.0389 36.1499 40.4839V40.9132C36.1499 41.311 36.0085 41.5675 35.6002 41.5675H35.0872ZM38.249 40.0651V41.7874H38.4951V38.123H38.249V39.8452H37.1078V38.123H36.867V41.7874H37.1078V40.0651H38.249ZM38.9819 40.8922C38.9819 41.4262 39.2279 41.8188 39.7828 41.8188C40.3482 41.8188 40.5943 41.4262 40.5943 40.8922V39.0181C40.5943 38.4842 40.3482 38.0916 39.7828 38.0916C39.2279 38.0916 38.9819 38.4842 38.9819 39.0181V40.8922ZM39.2227 39.0024C39.2227 38.6046 39.3797 38.3114 39.7828 38.3114C40.1912 38.3114 40.3534 38.6046 40.3534 39.0024V40.9079C40.3534 41.3058 40.1912 41.5989 39.7828 41.5989C39.3797 41.5989 39.2227 41.3058 39.2227 40.9079V39.0024ZM42.484 38.3428V38.123H41.0758V41.7874H41.3167V38.3428H42.484ZM42.9551 40.8922C42.9551 41.4262 43.2012 41.8188 43.7561 41.8188C44.3215 41.8188 44.5675 41.4262 44.5675 40.8922V39.0181C44.5675 38.4842 44.3215 38.0916 43.7561 38.0916C43.2012 38.0916 42.9551 38.4842 42.9551 39.0181V40.8922ZM43.196 39.0024C43.196 38.6046 43.353 38.3114 43.7561 38.3114C44.1644 38.3114 44.3267 38.6046 44.3267 39.0024V40.9079C44.3267 41.3058 44.1644 41.5989 43.7561 41.5989C43.353 41.5989 43.196 41.3058 43.196 40.9079V39.0024ZM29.7214 45.1326V48.797H29.9623V47.2894H30.4177C30.9988 47.2894 31.2657 47.0014 31.2657 46.4204V46.0225C31.2657 45.4886 31.0459 45.1326 30.4805 45.1326H29.7214ZM29.9623 47.0695V45.3524H30.4805C30.8888 45.3524 31.0249 45.6089 31.0249 46.0068V46.4361C31.0249 46.881 30.8417 47.0695 30.4177 47.0695H29.9623ZM31.9515 46.8287V45.3524H33.1555V45.1326H31.7107V48.797H33.1555V48.5772H31.9515V47.0485H32.9513V46.8287H31.9515ZM35.6264 45.5409V48.797H35.8567V45.1326H35.5112L34.7469 48.373L33.9774 45.1326H33.6319V48.797H33.8465V45.5514L34.6213 48.7918H34.8621L35.6264 45.5409ZM36.3435 47.9018C36.3435 48.4358 36.5895 48.8284 37.1445 48.8284C37.7098 48.8284 37.9559 48.4358 37.9559 47.9018V46.0277C37.9559 45.4938 37.7098 45.1012 37.1445 45.1012C36.5895 45.1012 36.3435 45.4938 36.3435 46.0277V47.9018ZM36.5843 46.012C36.5843 45.6142 36.7414 45.321 37.1445 45.321C37.5528 45.321 37.7151 45.6142 37.7151 46.012V47.9175C37.7151 48.3154 37.5528 48.6086 37.1445 48.6086C36.7414 48.6086 36.5843 48.3154 36.5843 47.9175V46.012ZM39.8195 47.0747V48.797H40.0655V45.1326H39.8195V46.8549H38.6783V45.1326H38.4375V48.797H38.6783V47.0747H39.8195ZM41.4946 48.797V45.3524H42.2432V45.1326H40.5052V45.3524H41.2538V48.797H41.4946ZM44.1749 47.9856L44.3581 48.797H44.5989L43.7823 45.1273H43.4315L42.6306 48.797H42.8505L43.0337 47.9856H44.1749ZM43.5991 45.4048L44.1383 47.7762H43.0703L43.5991 45.4048Z" fill="#1F1D1A"/>
<path fill-rule="evenodd" clip-rule="evenodd" d="M16.2808 35.6376V32.4746H15.2524V20.2303H13.7194V32.4358H10.3818V20.2303H8.8877V33.8135H14.8061V35.6376H16.2808ZM47.0976 26.3428L47.0973 27.7011H45.4109V33.8135H43.8974V20.2303H45.4109V26.3428H47.0976ZM28.7599 26.2457V21.6081H32.8349V20.2303H27.2463V33.8135H32.8349V32.4358H28.7599V27.6041H32.0781V26.2457H28.7599Z" fill="#1F1D1A"/>
</g>
<defs>
<filter id="filter0_d" x="0.823158" y="0.823158" width="91.5365" height="67.5305" filterUnits="userSpaceOnUse" color-interpolation-filters="sRGB">
<feFlood flood-opacity="0" result="BackgroundImageFix"/>
<feColorMatrix in="SourceAlpha" type="matrix" values="0 0 0 0 0 0 0 0 0 0 0 0 0 0 0 0 0 0 127 0"/>
<feOffset dx="1.08842" dy="1.08842"/>
<feGaussianBlur stdDeviation="1.63263"/>
<feColorMatrix type="matrix" values="0 0 0 0 0 0 0 0 0 0 0 0 0 0 0 0 0 0 0.3 0"/>
<feBlend mode="normal" in2="BackgroundImageFix" result="effect1_dropShadow"/>
<feBlend mode="normal" in="SourceGraphic" in2="effect1_dropShadow" result="shape"/>
</filter>
</defs>
</svg>
