<svg width="53" height="69" viewBox="0 0 53 69" fill="none" xmlns="http://www.w3.org/2000/svg">
<path d="M-1.00316e-06 39.7997L6.62499 28.3249L7.71838 26.4311L7.71838 3.47732e-06L45.2816 1.83537e-06L45.2816 26.4311L46.375 28.3249L53 39.7997L46.375 51.2746L39.75 62.7494L26.7724 62.7494L13.25 62.7494L6.625 51.2746L-1.00316e-06 39.7997Z" fill="#1F1D1A"/>
<path fill-rule="evenodd" clip-rule="evenodd" d="M-1.00316e-06 45.9077L6.62499 34.4329L8.99949 30.5407L44.0731 30.5484L46.375 34.4329L53 45.9077L46.375 57.3825L39.75 68.8574L26.5 68.8574L13.25 68.8574L6.625 57.3825L-1.00316e-06 45.9077Z" fill="#FFDC0A"/>
<line x1="14.5" y1="40.5" x2="38.5" y2="40.5" stroke="white" stroke-width="3" stroke-linecap="round"/>
<line x1="14.5" y1="47.5" x2="38.5" y2="47.5" stroke="white" stroke-width="3" stroke-linecap="round"/>
<line x1="14.5" y1="54.5" x2="38.5" y2="54.5" stroke="white" stroke-width="3" stroke-linecap="round"/>
</svg>
