<svg width="68" height="53" viewBox="0 0 68 53" fill="none" xmlns="http://www.w3.org/2000/svg">
<path d="M38.7998 52.9995L27.325 46.3745L25.4312 45.2811L-6.74762e-07 45.2811L-3.95864e-06 7.7179L25.4312 7.7179L27.325 6.62454L38.7998 -0.00048246L50.2747 6.62454L61.7495 13.2495L61.7495 26.2271L61.7495 39.7495L50.2747 46.3745L38.7998 52.9995Z" fill="#1F1D1A"/>
<path fill-rule="evenodd" clip-rule="evenodd" d="M44.9078 52.9995L33.4329 46.3745L29.5407 44L29.5485 8.92638L33.4329 6.62454L44.9077 -0.00048246L56.3826 6.62454L67.8574 13.2495L67.8574 26.4995L67.8574 39.7495L56.3826 46.3745L44.9078 52.9995Z" fill="#FFDC0A"/>
<path d="M53.5 38.4996L39.9121 27.2544C39.4351 26.8597 39.4278 26.1309 39.8967 25.7266L53.5 13.9996" stroke="white" stroke-width="3" stroke-linecap="round"/>
<line x1="53.5" y1="38.4996" x2="53.5" y2="14.4996" stroke="white" stroke-width="3" stroke-linecap="round"/>
</svg>
