<svg width="78" height="107" viewBox="0 0 78 107" fill="none" xmlns="http://www.w3.org/2000/svg">
<path d="M0.999999 65.2965L10.5 48.8279L12.0679 46.1099L12.0679 1L65.9321 0.999997L65.9321 46.1099L67.5 48.8279L77 65.2965L67.5 81.7652L58 98.2339L39.3906 98.2339L20 98.2339L10.5 81.7652L0.999999 65.2965Z" fill="#1F1D1A" stroke="black" stroke-width="0.0318809" stroke-miterlimit="22.9256"/>
<path d="M10.5018 90.5303L1.00241 74.0626L10.5018 57.595L13.9061 52.01L64.198 52.0212L67.4982 57.5951L76.9976 74.0626L67.4982 90.5303L57.9988 106.998L39 106.998L20.0012 106.998L10.5018 90.5303Z" fill="#FFDC0A" stroke="black" stroke-width="0.00418384"/>
<path d="M50.994 79.2428H27.006L39 63.409L50.994 79.2428Z" fill="black" stroke="black"/>
<path d="M50.994 91.3571H27.006L39 75.5233L50.994 91.3571Z" fill="black" stroke="black"/>
</svg>
